<?xml version="1.0" encoding="UTF-8"?>
<svg width="1440px" height="1440px" viewBox="0 0 1440 1440" version="1.1" xmlns="http://www.w3.org/2000/svg" xmlns:xlink="http://www.w3.org/1999/xlink">
    <!-- Generator: Sketch 48.2 (47327) - http://www.bohemiancoding.com/sketch -->
    <title>backgorund-blocks</title>
    <desc>Created with Sketch.</desc>
    <defs>
        <linearGradient x1="0%" y1="98.1409893%" x2="100%" y2="1.50886496%" id="linearGradient-1">
            <stop stop-color="#FFFFFF" stop-opacity="0" offset="0%"></stop>
            <stop stop-color="#FFFFFF" stop-opacity="0.3" offset="100%"></stop>
        </linearGradient>
        <linearGradient x1="100%" y1="1.50886496%" x2="0%" y2="98.1409893%" id="linearGradient-2">
            <stop stop-color="#FFFFFF" stop-opacity="0.1" offset="0%"></stop>
            <stop stop-color="#FFFFFF" stop-opacity="0.3" offset="100%"></stop>
        </linearGradient>
        <linearGradient x1="100%" y1="1.50886496%" x2="0%" y2="98.1409893%" id="linearGradient-3">
            <stop stop-color="#FFFFFF" stop-opacity="0" offset="0%"></stop>
            <stop stop-color="#FFFFFF" stop-opacity="0.3" offset="100%"></stop>
        </linearGradient>
    </defs>
    <g id="Template" stroke="none" stroke-width="1" fill="none" fill-rule="evenodd">
        <g id="backgorund-blocks">
            <path d="M130.823422,1082.83028 L636.411711,750.19121 C651.175927,740.477466 671.019234,744.571683 680.732978,759.335899 C684.168947,764.558334 686,770.672811 686,776.924188 L686,1009.6574 C686,1031.19384 675.16824,1051.2862 657.176578,1063.12336 L151.588289,1395.76243 C136.824073,1405.47617 116.980766,1401.38196 107.267022,1386.61774 C103.831053,1381.39531 102,1375.28083 102,1369.02945 L102,1136.29624 C102,1114.7598 112.83176,1094.66744 130.823422,1082.83028 Z" id="Block" fill="url(#linearGradient-1)"></path>
            <path d="M-46.9762505,787.874817 L269.011875,580.101803 C278.241164,574.033229 290.642533,576.595495 296.711107,585.824785 C298.856678,589.087841 300,592.907656 300,596.81291 L300,736.762322 C300,753.592499 291.532858,769.293485 277.470313,778.54009 L-34.0118747,983.350296 C-43.2411644,989.41887 -55.6425332,986.856604 -61.7111072,977.627314 C-63.8566784,974.364258 -65,970.544443 -65,966.639189 L-65,821.297031 C-65,807.83289 -58.2262863,795.272101 -46.9762505,787.874817 Z" id="Block" fill="url(#linearGradient-2)"></path>
            <path d="M1050.22438,499.594483 L1492.61219,208.58923 C1505.53159,200.090777 1522.89418,203.674659 1531.39263,216.594054 C1534.39829,221.163273 1536,226.5127 1536,231.981864 L1536,435.57389 C1536,454.419925 1526.52056,472.002043 1510.77562,482.359157 L1068.38781,773.364411 C1055.46841,781.862863 1038.10582,778.278981 1029.60737,765.359586 C1026.60171,760.790367 1025,755.44094 1025,749.971777 L1025,546.379751 C1025,527.533716 1034.47944,509.951597 1050.22438,499.594483 Z" id="Block" fill="url(#linearGradient-1)"></path>
            <path d="M587.897026,248.723245 L1184.24851,-105.287445 C1200.2055,-114.759949 1220.82017,-109.503242 1230.29267,-93.5462595 C1233.37392,-88.3557199 1235,-82.430979 1235,-76.3947726 L1235,169.445052 C1235,193.162508 1222.49764,215.123561 1202.10297,227.230396 L605.751487,581.241085 C589.794505,590.71359 569.179833,585.456882 559.707328,569.4999 C556.626081,564.30936 555,558.384619 555,552.348413 L555,306.508589 C555,282.791132 567.502363,260.830079 587.897026,248.723245 Z" id="Block" fill="url(#linearGradient-3)"></path>
            <path d="M690.023749,1177.32147 L1278.38191,790.455833 C1292.22584,781.352972 1310.82789,785.196371 1319.93075,799.040306 C1323.14911,803.93489 1324.86409,809.664612 1324.86409,815.522493 L1324.86409,1103.20965 C1324.86409,1116.67379 1318.09038,1129.23458 1306.84034,1136.63186 L702.988125,1533.68537 C693.758836,1539.75395 681.357467,1537.19168 675.288893,1527.96239 C673.143322,1524.69934 672,1520.87952 672,1516.97427 L672,1210.74368 C672,1197.27954 678.773714,1184.71875 690.023749,1177.32147 Z" id="Block" fill="url(#linearGradient-1)"></path>
            <path d="M-231.976251,415.32147 L371.875969,18.2679559 C381.105258,12.1993819 393.506627,14.7616482 399.575201,23.9909378 C401.720772,27.253994 402.864094,31.0738087 402.864094,34.9790631 L402.864094,341.209645 C402.864094,354.673787 396.09038,367.234576 384.840344,374.63186 L-219.011875,771.685374 C-228.241164,777.753948 -240.642533,775.191681 -246.711107,765.962392 C-248.856678,762.699336 -250,758.879521 -250,754.974267 L-250,448.743684 C-250,435.279542 -243.226286,422.718754 -231.976251,415.32147 Z" id="Block" fill="url(#linearGradient-1)"></path>
        </g>
    </g>
</svg>