<?xml version="1.0" encoding="utf-8"?>
<!-- Generator: Adobe Illustrator 23.0.4, SVG Export Plug-In . SVG Version: 6.00 Build 0)  -->
<svg version="1.1" id="Layer_1" xmlns="http://www.w3.org/2000/svg" xmlns:xlink="http://www.w3.org/1999/xlink" x="0px" y="0px"
	 viewBox="0 0 32 32" style="enable-background:new 0 0 32 32;" xml:space="preserve">
<style type="text/css">
	.st0{fill-rule:evenodd;clip-rule:evenodd;fill:#00C2D0;}
	.st1{fill:#00C2D0;}
</style>
<title>design-icon-4</title>
<desc>Created with Sketch.</desc>
<g>
	<g>
		<g>
			<path class="st0" d="M23,6.5c0.7,0.1,1.7,0.3,2.1,0.9c0.5,1.7,1,3.4,1.5,5.1c0.7-0.5,4.3-0.8,4.3,1.2c0,1.5-1.4,1.4-2.4,1.4
				c0.3,0.6,0.5,1.5,0.5,2.7c0,2.4,0,4.9,0,7.3c0,0.5-0.4,0.8-0.8,0.8h-3.6c-0.4,0-0.8-0.3-0.8-0.8v-1H8.2v1c0,0.5-0.3,0.8-0.8,0.8
				H3.7c-0.4,0-0.8-0.3-0.8-0.8c0-2.5,0-4.9,0-7.3c0-1.3,0.2-2.1,0.5-2.7c-1,0-2.4,0-2.4-1.5c0-1.8,3.5-1.7,4.3-1.2
				c0.5-1.7,0.9-3.4,1.4-5.1c0.5-0.6,1.4-0.8,2.1-0.9C13.7,5.8,18.3,5.8,23,6.5L23,6.5z"/>
		</g>
	</g>
	<path class="st1" d="M17.2,14.5h-0.7v-2.6h2.3c0.3,0,0.6-0.3,0.6-0.6c0-0.3-0.3-0.6-0.6-0.6l-2.3,0V9.6c0-0.3-0.3-0.6-0.6-0.6
		s-0.6,0.3-0.6,0.6v1.1h-0.7c-1.4,0-2.5,1.1-2.5,2.5c0,1.4,1.1,2.5,2.5,2.5h0.7v2.6h-2.6c-0.3,0-0.6,0.3-0.6,0.6
		c0,0.3,0.3,0.6,0.6,0.6h2.6v1.1c0,0.3,0.3,0.6,0.6,0.6s0.6-0.3,0.6-0.6v-1.1h0.7c1.4,0,2.5-1.1,2.5-2.5
		C19.6,15.6,18.5,14.5,17.2,14.5L17.2,14.5z M14.6,14.5c-0.7,0-1.3-0.6-1.3-1.3c0-0.7,0.6-1.3,1.3-1.3h0.7v2.6L14.6,14.5z
		 M17.2,18.2h-0.7v-2.6h0.7c0.7,0,1.3,0.6,1.3,1.3C18.5,17.6,17.9,18.2,17.2,18.2L17.2,18.2z"/>
</g>
</svg>
