<?xml version="1.0" encoding="utf-8"?>
<!-- Generator: Adobe Illustrator 23.0.4, SVG Export Plug-In . SVG Version: 6.00 Build 0)  -->
<svg version="1.1" id="Layer_1" xmlns="http://www.w3.org/2000/svg" xmlns:xlink="http://www.w3.org/1999/xlink" x="0px" y="0px"
	 viewBox="0 0 200 200" style="enable-background:new 0 0 200 200;" xml:space="preserve">
<style type="text/css">
	.st0{fill:#C1FF16;}
	.st1{fill:#42AE13;}
</style>
<path class="st0" d="M179.5,60.5c-0.4-9.2-5.3-15.7-13.7-19.3c-2.1-0.9-4.5-1.3-6.9-1.9c0-1.6,0-3.5,0-5.4c0-5.1-3.3-8.4-8.4-8.4
	c-18.7,0-37.4,0-56.1,0c-5.2,0-8.5,3.3-8.5,8.5c0,1.8,0,3.6,0,5.5h-1.5c-9,0-18.1,0-27.1,0c-3.4,0-6.5,0.9-9.1,3.2
	c-2,1.9-4,3.8-5.8,5.9C34.9,57.7,29.3,68,25,79c-2.3,5.9-4.2,11.9-4.7,18.3c-0.8,10.2-0.1,20.4,1,30.5c0.6,5.3,1.4,10.5,2,15.7h-4.6
	c0-2.6,0-5.1,0-7.6c0-2.5-1.9-4.4-4.2-4.4c-2.2-0.1-4.2,1.9-4.3,4.3c-0.1,4-0.1,8.1,0,12.1c0.1,2.5,2,4.2,4.5,4.2c4,0,8,0,12-0.1
	c0.7,0,1.2,0.2,1.7,0.8c2.5,3.1,5.6,5.5,9.5,6.6c1.7,0.5,3.5,0.7,5.4,1.1v15.8c0,2.4,1.9,4.3,4.3,4.3c2.4,0,4.3-1.9,4.3-4.3v-3.8
	c0.1,0,0.1,0,0.2,0v-12.2h1.2c19.1,0,38.2,0,57.4,0c0.6,0,0.9,0.1,1.1,0.4c2.1,10.9,11.8,19.2,23.3,19.2c7.8,0,14.8-3.8,19.1-9.7
	c0,0,0,0,0,0c1.1-1.4,1.9-3,2.6-4.7c0-0.1,0.1-0.2,0.1-0.3c0.1-0.2,0.2-0.4,0.2-0.6c0.1-0.2,0.1-0.4,0.2-0.6
	c0.1-0.2,0.1-0.4,0.2-0.5c0.1-0.2,0.1-0.3,0.2-0.5c0.2-0.5,0.3-1.1,0.5-1.6c0.2-0.9,0.5-1.1,1.4-1.2c3.8-0.3,7.3-1.5,10.4-3.8
	c6.4-4.6,9.7-10.8,9.7-18.8c0-16.4,0-32.9,0-49.3C179.7,79,179.9,69.7,179.5,60.5z"/>
<path class="st1" d="M107.5,96.4h-4.1V80.3h13.2c1.9,0,3.4-1.6,3.4-3.6s-1.5-3.6-3.4-3.6l-13.2,0v-6.9c0-2-1.5-3.6-3.4-3.6
	c-1.9,0-3.4,1.6-3.4,3.6V73h-4.1c-7.9,0-14.3,6.9-14.3,15.3c0,8.4,6.4,15.3,14.3,15.3h4.1v16.1h-15c-1.9,0-3.4,1.6-3.4,3.6
	c0,2,1.5,3.6,3.4,3.6h15v6.9c0,2,1.5,3.6,3.4,3.6c1.9,0,3.4-1.6,3.4-3.6V127h4.1c7.9,0,14.3-6.9,14.3-15.3
	C121.8,103.2,115.4,96.4,107.5,96.4L107.5,96.4z M92.5,96.4c-4.1,0-7.5-3.6-7.5-8.1c0-4.4,3.4-8.1,7.5-8.1h4.1v16.1L92.5,96.4z
	 M107.5,119.7h-4.1v-16.1h4.1c4.1,0,7.5,3.6,7.5,8.1C115,116.1,111.7,119.7,107.5,119.7L107.5,119.7z"/>
</svg>
