<?xml version="1.0" encoding="utf-8"?>
<!-- Generator: Adobe Illustrator 23.0.3, SVG Export Plug-In . SVG Version: 6.00 Build 0)  -->
<svg version="1.1" id="Layer_1" xmlns="http://www.w3.org/2000/svg" xmlns:xlink="http://www.w3.org/1999/xlink" x="0px" y="0px"
	 viewBox="0 0 750 144" style="enable-background:new 0 0 750 144;" xml:space="preserve">
<style type="text/css">
	.st0{fill:#FFFFFF;}
	.st1{fill:#22BFCD;}
</style>
<g>
	<g>
		<path class="st0" d="M56.8,114.7C27.1,114.7,5,92.7,5,63.5c0-29.3,22.2-51.3,51.9-51.3c25.5,0,45.3,16.9,49.3,41.6l-27.2,0
			c-3.3-10-11.8-16.5-22-16.5C43.1,37.4,33,48.5,33,63.6c0,15,10.1,26,23.9,26c10.8,0,19.3-7,22.1-17.9l27.5,0
			C102.7,97.3,82.8,114.7,56.8,114.7L56.8,114.7z"/>
		<path class="st0" d="M198.1,37.1l-0.1,75.2l-20,0l-2.2-5.3c-6.2,5-14,7.9-22.7,7.8c-23,0-39.4-16.8-39.4-40.2
			c0-23.3,16.5-39.9,39.5-39.8c8.9,0,16.8,3,23,8.1l2.7-5.8L198.1,37.1z M173.4,74.7c0-9.8-7.1-17.1-16.8-17.1
			c-9.8,0-16.8,7.3-16.8,17.1c0,9.8,7.1,17.2,16.8,17.2C166.3,91.8,173.4,84.5,173.4,74.7z"/>
		<path class="st0" d="M263.4,36.8l0,23.7l-10.1,0c-9.2,0-13,4-13,13.6l0,38.2l-25.9,0l0.1-75.2l17.4,0l4,8.3
			c5.3-6.1,11.8-8.7,20.7-8.7L263.4,36.8z"/>
		<path class="st1" d="M336,61C345.2,65.3,351,74,351,84.7c0,15.8-13.6,27.8-31.6,27.7l-44.9,0l0.1-97.5l44,0
			c17.3,0,29.9,10.6,29.9,25C348.4,48.6,343.5,56.5,336,61L336,61z M324.4,81.5c0-5.2-3.8-8.8-9.6-8.8l-14.6,0l0,17.7l14.6,0
			C320.6,90.4,324.4,86.7,324.4,81.5z M322.9,44.3c0-5.1-3.5-8.5-9.1-8.5l-13.6,0l0,17l13.6,0C319.4,52.8,322.9,49.4,322.9,44.3
			L322.9,44.3z"/>
		<path class="st1" d="M362.8,80.2l0-42.9l25.9,0l0,41.8c0,7.9,4.3,12.6,11.2,12.6c6.9,0,11.1-4.7,11.1-12.6l0-41.8l25.9,0l0,42.9
			c0,21-14.8,34.7-37,34.7C377.7,114.9,362.8,101.2,362.8,80.2z"/>
		<path class="st1" d="M530.9,37.4l-31.6,71.8c-10.2,23-19.5,31.3-38.9,31.3l-8.9,0l0-22.3l7.1,0c9.9,0,12.9-2.6,16.4-11.9l-31-69
			l28.1,0l15.9,41.4l14.9-41.4L530.9,37.4z"/>
		<path class="st1" d="M612.4,74.3c0,2.3-0.2,4.5-0.5,6.9l-55.8,0c1.7,8.6,7.2,13.1,15.3,13.1c6.1,0,11.1-2.6,13.6-7l25.8,0
			c-5.3,17.2-20.5,27.9-39.4,27.9c-23.5,0-40.8-17.2-40.8-40.2c0-23.1,17.3-40,40.9-40C595.7,34.9,612.5,52.2,612.4,74.3L612.4,74.3
			z M556.5,66.8l30.4,0c-2.3-7.5-7.7-11.6-15.5-11.6C563.9,55.2,558.6,59.3,556.5,66.8z"/>
		<path class="st1" d="M673.2,37.1l0,23.7l-10.1,0c-9.2,0-13,4-13,13.6l0,38.2l-25.9,0l0.1-75.2l17.4,0l4,8.3
			c5.3-6.1,11.8-8.7,20.7-8.7L673.2,37.1z"/>
		<path class="st1" d="M711.7,115.2c-20.5,0-32.9-10.8-33.2-27.1l24.9,0c0,5.5,3.8,8,8.7,8c3.8,0,7.4-1.9,7.4-5.8
			c0-4.3-5.7-5.6-12.9-6.8c-11.7-1.9-27.1-5.4-27.1-23.7c0-15.1,12.9-24.8,32.1-24.8c19.2,0,31.6,10.2,31.8,25.4l-24.3,0
			c0-4.8-3.2-7-7.9-7c-4.2,0-6.9,2.1-6.9,5.5c0,4.3,5.7,5.3,12.9,6.6c11.9,2.1,27.7,4.6,27.7,23.7
			C745,104.9,731.7,115.2,711.7,115.2L711.7,115.2z"/>
	</g>
</g>
</svg>
