<?xml version="1.0" encoding="utf-8"?>
<!-- Generator: Adobe Illustrator 23.0.4, SVG Export Plug-In . SVG Version: 6.00 Build 0)  -->
<svg version="1.1" id="Layer_1" xmlns="http://www.w3.org/2000/svg" xmlns:xlink="http://www.w3.org/1999/xlink" x="0px" y="0px"
	 viewBox="0 0 200 200" style="enable-background:new 0 0 200 200;" xml:space="preserve">
<style type="text/css">
	.st0{fill:#42AE13;}
</style>
<g>
	<path class="st0" d="M141.2,41.4l-11.5,8.2c-4.8-2.8-9.8-4.9-15.1-6.2l-2.4-14c-0.4-2.6-2.7-4.5-5.3-4.5L93,25
		c-2.6,0-4.8,1.9-5.3,4.5l-2.4,14C80,44.8,74.8,46.9,70,49.9l-11.4-8.1c-2.1-1.5-5-1.3-6.9,0.6l-9.9,9.9c-1.8,1.8-2.1,4.8-0.6,6.9
		l8.3,11.6c-2.8,4.8-4.8,9.9-6.1,15.1l-13.9,2.2c-2.6,0.4-4.5,2.7-4.5,5.3l0,13.9c0,2.6,1.9,4.8,4.5,5.3l14.1,2.4
		c1.4,5.2,3.5,10.3,6.4,15l-8.1,11.4c-1.5,2.1-1.3,5,0.6,6.9l9.9,9.9c1.8,1.8,4.8,2.1,6.9,0.6l11.6-8.3c4.8,2.8,9.9,4.8,15.1,6.1
		l2.3,13.8c0.4,2.6,2.7,4.5,5.3,4.5l13.9,0c2.6,0,4.8-1.9,5.3-4.5l2.4-14.1c5.1-1.3,10.1-3.4,14.7-6.1l11.5,8.2
		c2.1,1.5,5,1.3,6.9-0.6l9.9-9.9c1.8-1.8,2.1-4.8,0.6-6.9l-8.2-11.5c2.8-4.8,4.9-9.8,6.2-15.1l14-2.4c2.6-0.4,4.5-2.7,4.5-5.3
		l0-13.9c0-2.6-1.9-4.8-4.5-5.3l-14-2.4c-1.3-5.3-3.4-10.3-6.3-15.1l8.2-11.5c1.5-2.1,1.3-5-0.6-6.9l-9.9-9.9
		C146.2,40.2,143.3,40,141.2,41.4L141.2,41.4z M78.7,121.4c-12-12-12-31.4,0-43.4c12-12,31.4-12,43.4,0c12,12,12,31.4,0,43.4
		C110.2,133.4,90.7,133.4,78.7,121.4z"/>
</g>
</svg>
