<?xml version="1.0" encoding="utf-8"?>
<!-- Generator: Adobe Illustrator 23.0.4, SVG Export Plug-In . SVG Version: 6.00 Build 0)  -->
<svg version="1.1" id="Layer_1" xmlns="http://www.w3.org/2000/svg" xmlns:xlink="http://www.w3.org/1999/xlink" x="0px" y="0px"
	 viewBox="0 0 200 200" style="enable-background:new 0 0 200 200;" xml:space="preserve">
<style type="text/css">
	.st0{fill:#F76240;}
</style>
<g>
	<path class="st0" d="M173,142.5v7.7c0,3.5-2.8,6.4-6.4,6.4h-52c-0.5-0.7-1.2-1.5-1.8-2.2l-10.7-10.7c-3-3.2-6.9-4.9-11.1-4.9
		c-4,0-7.9,1.7-11.1,4.9l-2.8,2.8c-4.9-3.2-9.4-7.4-13.6-12.7c-1-1.2-1.8-2.3-2.5-3.4c0.5-0.5,0.8-0.8,1.3-1.3c0.5-0.5,1-1,1.7-1.7
		c4.2-4.2,5.7-9.6,4.4-14.6c8.2-5,14.8-8.4,16.8-9.4c0.3-0.2,0.7-0.7,0.7-1v-9.6c-2.5-4.2-3.9-8.9-4.5-13.1
		c-1.5-0.2-3.4-2.2-5.5-9.6C73,60.2,76,58.7,78.5,59.1c-1.8-5.2-1.8-10.4-0.7-15.3c1.3-5.7,4.4-10.2,7.9-13.7c2.2-2.3,4.7-4.4,7.2-6
		c2.2-1.3,4.5-2.7,7.2-3.5c2-0.7,4.2-1.2,6.4-1.2c6.9-0.7,12.2,1.2,15.9,3.4c5.7,3.2,7.9,7.2,7.9,7.2s14.2,1,8,30.8
		c1.8,0.7,3.2,3.4,1,11.1c-2.7,9.6-5.2,10.2-6.7,9.2c-0.7,3.4-1.5,7-3.2,10.4v11.1c0,0.5,0.2,0.8,0.7,1c3.4,1.7,19.1,9.6,34.7,21.6
		C170,129.5,173,135.8,173,142.5L173,142.5z M90.2,180.8c4,0.2,7.5-0.8,10.4-4c1.8-2.2,4-4,6-6.2c3-3.2,3-6.9,0-9.7
		c-3.5-3.5-7.2-7.2-10.7-10.7c-2.8-3-6.5-3-9.6,0c-2.2,2.2-4.5,4.5-6.7,6.7c-0.7,0.7-1.2,0.7-1.8,0.3c-1.3-0.8-3-1.5-4.4-2.3
		c-6.4-4-11.9-9.4-16.8-15.3c-2.3-3-4.5-6-6-9.7c-0.2-0.7-0.2-1.2,0.3-1.7c2.3-2.2,4.5-4.4,6.7-6.5c3.2-3.2,3.2-6.7,0-9.7
		c-1.8-1.8-3.5-3.5-5.4-5.4c-1.8-1.8-3.5-3.7-5.5-5.5c-2.8-2.8-6.5-2.8-9.6,0c-2.2,2.2-4.5,4.5-6.7,6.7c-2.2,2.2-3.2,4.5-3.5,7.4
		c-0.3,4.5,0.7,9,2.3,13.4c3.4,9,8.4,16.9,14.6,24.1c8.4,9.9,18.3,17.8,29.8,23.3C79.2,178.4,84.5,180.3,90.2,180.8L90.2,180.8z"/>
</g>
</svg>
