<?xml version="1.0" encoding="utf-8"?>
<!-- Generator: Adobe Illustrator 23.0.4, SVG Export Plug-In . SVG Version: 6.00 Build 0)  -->
<svg version="1.1" id="Layer_1" xmlns="http://www.w3.org/2000/svg" xmlns:xlink="http://www.w3.org/1999/xlink" x="0px" y="0px"
	 viewBox="0 0 200 200" style="enable-background:new 0 0 200 200;" xml:space="preserve">
<style type="text/css">
	.st0{fill-rule:evenodd;clip-rule:evenodd;fill:#42AE13;}
</style>
<g>
	<g>
		<path class="st0" d="M155.2,34.3l2.2,2.2l-8.6,8.6l6.1,6.1l8.6-8.6l2.2,2.2c1.8,1.8,1.8,5.1-0.2,7.2l-6.7,6.7L141.1,41l6.7-6.7
			C149.9,32.2,153.2,32.2,155.2,34.3L155.2,34.3z M128.4,89.2l-63.5,63.5L47.1,135l90.7-90.7l22.9,22.9l-27.2,27.2l-3.1-3.1
			l22.7-22.7l-2-2L128.4,89.2L128.4,89.2z M61.6,156L51,160.1l-18.2,7.2l7.2-18.2l4.1-10.6L61.6,156L61.6,156z"/>
		<path class="st0" d="M161.7,34.3l4.1,4.1l-10.8,10.8L151,45L161.7,34.3z"/>
	</g>
</g>
</svg>
