<?xml version="1.0" encoding="utf-8"?>
<!-- Generator: Adobe Illustrator 23.0.4, SVG Export Plug-In . SVG Version: 6.00 Build 0)  -->
<svg version="1.1" id="Layer_1" xmlns="http://www.w3.org/2000/svg" xmlns:xlink="http://www.w3.org/1999/xlink" x="0px" y="0px"
	 viewBox="0 0 32 32" style="enable-background:new 0 0 32 32;" xml:space="preserve">
<style type="text/css">
	.st0{fill:#00C2D0;}
</style>
<title>rocket-icon-4</title>
<desc>Created with Sketch.</desc>
<g>
	<path class="st0" d="M16,3.9C9.3,3.9,3.9,9.3,3.9,16S9.3,28.1,16,28.1c6.7,0,12.1-5.4,12.1-12.1S22.7,3.9,16,3.9z M19.3,20.7
		c-0.6,0.7-1.5,1.1-2.6,1.2l0,1.7h-1.4v-1.7c-1.9-0.2-3-1.3-3.5-3.3L14,18c0.2,1.3,0.9,1.9,2,1.9c0.5,0,0.9-0.1,1.2-0.4
		c0.3-0.3,0.4-0.6,0.4-1c0-0.4-0.1-0.7-0.4-0.9c-0.3-0.2-0.8-0.5-1.7-0.8c-0.8-0.3-1.4-0.5-1.9-0.8c-0.4-0.3-0.8-0.6-1.1-1.1
		c-0.3-0.5-0.4-1-0.4-1.7c0-0.8,0.2-1.6,0.7-2.3c0.5-0.7,1.3-1.1,2.3-1.2l0-1.3h1.4v1.3c1.6,0.2,2.6,1.1,3.1,2.7l-2,0.8
		c-0.4-1.1-1-1.7-1.8-1.7c-0.4,0-0.7,0.1-1,0.4c-0.2,0.2-0.4,0.6-0.4,0.9c0,0.4,0.1,0.6,0.4,0.8c0.2,0.2,0.7,0.4,1.5,0.7
		c0.9,0.3,1.5,0.6,2,0.9c0.5,0.3,0.9,0.7,1.2,1.1c0.3,0.5,0.4,1.1,0.4,1.7C20.2,19.2,19.9,20,19.3,20.7L19.3,20.7z"/>
</g>
</svg>
