<?xml version="1.0" encoding="utf-8"?>
<!-- Generator: Adobe Illustrator 23.0.4, SVG Export Plug-In . SVG Version: 6.00 Build 0)  -->
<svg version="1.1" id="Layer_1" xmlns="http://www.w3.org/2000/svg" xmlns:xlink="http://www.w3.org/1999/xlink" x="0px" y="0px"
	 viewBox="0 0 200 200" style="enable-background:new 0 0 200 200;" xml:space="preserve">
<style type="text/css">
	.st0{fill:#42AE13;}
</style>
<g>
	<g>
		<path class="st0" d="M139.8,33.7v132.5c7.3,0,13.3-6,13.3-13.2V47C153,39.7,147,33.7,139.8,33.7L139.8,33.7z"/>
		<path class="st0" d="M166.3,47v106c7.3,0,13.3-6,13.3-13.3V60.2C179.5,53,173.5,47,166.3,47z"/>
		<path class="st0" d="M113.3,20.5H33.7c-7.3,0-13.3,6-13.3,13.3v132.5c0,7.3,6,13.3,13.3,13.3h79.5c7.3,0,13.2-6,13.2-13.3V33.7
			C126.5,26.5,120.5,20.5,113.3,20.5z M66.9,93.4h13.3c11,0,19.9,8.9,19.9,19.9h0c0,11-8.9,19.9-19.9,19.9v13.2H66.9v-13.2
			c-11,0-19.9-8.9-19.9-19.9h13.3c0,3.7,3,6.6,6.6,6.6h13.2c3.7,0,6.6-3,6.6-6.6h0c0-3.7-3-6.6-6.6-6.6H66.9
			c-11,0-19.9-8.9-19.9-19.9c0-11,8.9-19.9,19.9-19.9V53.6h13.2v13.2c11,0,19.9,8.9,19.9,19.9H86.7c0-3.7-3-6.6-6.6-6.6H66.9
			c-3.7,0-6.6,3-6.6,6.6C60.2,90.4,63.2,93.4,66.9,93.4L66.9,93.4z"/>
	</g>
</g>
</svg>
