<?xml version="1.0" encoding="UTF-8"?>
<svg width="48px" height="48px" viewBox="0 0 48 48" version="1.1" xmlns="http://www.w3.org/2000/svg" xmlns:xlink="http://www.w3.org/1999/xlink">
    <!-- Generator: Sketch 48.2 (47327) - http://www.bohemiancoding.com/sketch -->
    <title>input-mail-icon</title>
    <desc>Created with Sketch.</desc>
    <defs></defs>
    <g id="Symbols" stroke="none" stroke-width="1" fill="none" fill-rule="evenodd">
        <g id="input-mail-icon" fill="#B0B9CB" fill-rule="nonzero">
            <path d="M31.9998269,20.355484 C32.0000272,20.3662561 32.0000535,20.3770245 31.9999067,20.387785 L31.9999067,28.625 C31.9999067,29.937608 30.9182111,31 29.5999347,31 L18.4000653,31 C17.0817889,31 16.0000933,29.937608 16.0000933,28.625 L16.0000933,20.387785 C15.9999465,20.3770245 15.9999728,20.3662561 16.0001731,20.355484 C16.0108312,19.0518776 17.0883285,18 18.4000653,18 L29.5999347,18 C30.9116715,18 31.9891688,19.0518776 31.9998269,20.355484 Z M29.7431538,20.0255053 C29.6987333,20.0090949 29.6504615,20 29.5999347,20 L18.4000653,20 C18.3495385,20 18.3012667,20.0090949 18.2568462,20.0255053 L24,23.9739695 L29.7431538,20.0255053 Z M29.99993,22.2760305 L24.5665222,26.0115419 C24.2252742,26.2461527 23.7747258,26.2461527 23.4334778,26.0115419 L18.00007,22.2760305 L18.00007,28.625 C18.00007,28.824892 18.1783597,29 18.4000653,29 L29.5999347,29 C29.8216403,29 29.99993,28.824892 29.99993,28.625 L29.99993,22.2760305 Z" id="icon"></path>
        </g>
    </g>
</svg>