<?xml version="1.0" encoding="utf-8"?>
<!-- Generator: Adobe Illustrator 23.0.4, SVG Export Plug-In . SVG Version: 6.00 Build 0)  -->
<svg version="1.1" id="Layer_1" xmlns="http://www.w3.org/2000/svg" xmlns:xlink="http://www.w3.org/1999/xlink" x="0px" y="0px"
	 viewBox="0 0 200 200" style="enable-background:new 0 0 200 200;" xml:space="preserve">
<style type="text/css">
	.st0{fill:#00C2D0;}
</style>
<g>
	<path class="st0" d="M98.2,32.4C83.8,46.8,80,67.8,86.8,85.7l-67.4,67.4l-3.1,29.1l38.5-6.6l1.6-17.7l17.7-1.6l1.6-17.7l17.7-1.6
		l22.4-22.4c17.9,6.8,38.9,3,53.3-11.4c19.5-19.5,19.5-51.2,0-70.8C149.5,12.9,117.8,12.9,98.2,32.4L98.2,32.4z M135.2,46.9
		c5.3-5.3,14-5.3,19.3,0s5.3,14,0,19.3s-14,5.3-19.3,0C129.9,60.9,129.9,52.2,135.2,46.9z"/>
</g>
</svg>
