<?xml version="1.0" encoding="utf-8"?>
<!-- Generator: Adobe Illustrator 23.0.4, SVG Export Plug-In . SVG Version: 6.00 Build 0)  -->
<svg version="1.1" id="Layer_1" xmlns="http://www.w3.org/2000/svg" xmlns:xlink="http://www.w3.org/1999/xlink" x="0px" y="0px"
	 viewBox="0 0 200 200" style="enable-background:new 0 0 200 200;" xml:space="preserve">
<style type="text/css">
	.st0{fill:#42AE13;}
</style>
<g>
	<path class="st0" d="M157.5,146.6v0.3c0,0.5,0,1.6,0,3c-17.3,8-36.7,12.5-57.2,12.5c-20.4,0-39.8-4.5-57-12.4
		c-0.1-1.4-0.1-2.6-0.1-3v-0.8h0c0-0.7-0.1-1.5-0.1-2.3c-0.1-6.3,1.4-15.9,10.9-18.2c14.3-3.5,26.6-9.5,26.7-9.5
		c1.2-1.9,1.8-4.7,2.1-6.7c-3.6-4.8-5.3-10.5-6.1-15.4c-1.3-0.1-3.1-2-5-8.8c-2.4-8.7-0.2-10.5,2.1-10.5c0.1,0,0.3,0,0.4,0
		c-1.7-4.9-1.8-9.7-0.6-14.2c1.2-5.3,4-9.4,7.2-12.7c2-2.1,4.2-4,6.6-5.5c1.9-1.4,4.1-2.5,6.4-3.3c1.8-0.6,3.8-1,5.8-1.1
		c0.9-0.1,1.7-0.1,2.5-0.1c5.2,0,9.2,1.4,12.2,3.3c5.2,2.9,7.2,6.7,7.2,6.7s13,0.9,7.3,28.6c1.8,0.6,3,3,1,10.3
		c-2,7-3.8,8.8-5.1,8.8c-0.4,0-0.7-0.1-1-0.3c-0.8,4.6-2.5,9.7-5.7,14.1c0.3,2.2,1,5.6,2.5,7.5c0,0,11.9,5.4,26.3,8.9
		c9.4,2.3,10.9,11.9,10.9,18.1C157.6,144.8,157.5,145.8,157.5,146.6L157.5,146.6z M189.8,113.7c-5.2-2.5-7.9-2.9-8-3
		c-0.2-0.1-8.9-2.4-12.9-4.6c-0.9-0.6-1.5-1.1-1.5-1.1v-4.3c0,0,11.8,0.4,17.3-5.3c0,0-8.1-2.3-6.7-17.1
		c1.5-14.8-1.8-27.7-13.7-26.6c0,0-5.1-6.2-15.4-2.3c-3.5,1.3-13,4.7-12.5,25.2c0.2,8-0.9,12.9-2.2,15.8c-0.8,2.6-1.8,4.6-2.7,6.1
		c-0.1,0.2-0.2,0.3-0.3,0.5c2.4,1.7,7.1,3.9,15.6,3.9v4.2c0,0-0.6,0.4-1.5,1.1c-4,2.2-12.7,4.5-12.9,4.6c-0.2,0.1-2.4,0.5-6.6,2.4
		c4.3,1.8,12.8,5,22.3,7.3c8.9,2.2,14.2,9.6,14.9,20.4c8.8-0.8,25.9-3.2,32.4-10.6v-8.6C195.3,121.5,195,116.2,189.8,113.7
		L189.8,113.7z M52.7,120.3c8.8-2.2,16.8-5.3,21.5-7.3c-4.2-1.9-6.4-2.3-6.5-2.4c-0.2-0.1-8.9-2.4-12.9-4.6
		c-0.9-0.6-1.5-1.1-1.5-1.1v-4.3c0,0,11.4,0.3,17.1-5.1c-0.1-0.2-0.2-0.3-0.3-0.5c-1.9-0.9-7.3-4.5-6-16.8
		c1.5-14.8-1.8-27.7-13.7-26.6c0,0-5.1-6.2-15.4-2.3c-3.5,1.3-13,4.7-12.5,25.2c0.5,20.5-7.3,20.6-7.3,20.6s4,5.8,17.6,5.7v4.2
		c0,0-0.6,0.4-1.5,1.1c-4,2.2-12.7,4.5-12.9,4.6c-0.2,0.1-2.8,0.6-8,3c-5.2,2.5-5.5,7.8-5.5,7.8v8.6c6.5,7.4,24.1,9.9,33.1,10.7
		C38.5,129.9,43.9,122.5,52.7,120.3L52.7,120.3z"/>
</g>
</svg>
