<?xml version="1.0" encoding="utf-8"?>
<!-- Generator: Adobe Illustrator 23.0.4, SVG Export Plug-In . SVG Version: 6.00 Build 0)  -->
<svg version="1.1" id="Layer_1" xmlns="http://www.w3.org/2000/svg" xmlns:xlink="http://www.w3.org/1999/xlink" x="0px" y="0px"
	 viewBox="0 0 200 200" style="enable-background:new 0 0 200 200;" xml:space="preserve">
<style type="text/css">
	.st0{fill:#00C2D0;}
</style>
<g>
	<g>
		<path class="st0" d="M185.9,38.7H14.1c-2.3,0-4.1,1.8-4.1,4.1v114.5c0,1.1,0.4,2.1,1.2,2.9c0.8,0.8,1.8,1.2,2.9,1.2h171.7
			c1.1,0,2.1-0.4,2.9-1.2c0.8-0.8,1.2-1.8,1.2-2.9V42.8c0-1.1-0.4-2.1-1.2-2.9C188,39.1,186.9,38.7,185.9,38.7L185.9,38.7z
			 M79.6,145H30.5c-2.3,0-4.1-1.8-4.1-4.1c0-2.3,1.8-4.1,4.1-4.1h49.1c2.3,0,4.1,1.8,4.1,4.1C83.6,143.1,81.8,145,79.6,145z
			 M79.6,128.6H30.5c-2.3,0-4.1-1.8-4.1-4.1c0-2.3,1.8-4.1,4.1-4.1h49.1c2.3,0,4.1,1.8,4.1,4.1C83.6,126.8,81.8,128.6,79.6,128.6z
			 M173.6,83.6c0,1.1-0.4,2.1-1.2,2.9c-0.8,0.8-1.8,1.2-2.9,1.2H145c-2.3,0-4.1-1.8-4.1-4.1V59.1c0-2.3,1.8-4.1,4.1-4.1h24.5
			c1.1,0,2.1,0.4,2.9,1.2c0.8,0.8,1.2,1.8,1.2,2.9V83.6z"/>
		<path class="st0" d="M149.1,63.2h16.4v16.4h-16.4V63.2z"/>
	</g>
</g>
</svg>
