<?xml version="1.0" encoding="UTF-8"?>
<svg width="32px" height="32px" viewBox="0 0 32 32" version="1.1" xmlns="http://www.w3.org/2000/svg" xmlns:xlink="http://www.w3.org/1999/xlink">
    <!-- Generator: Sketch 48.2 (47327) - http://www.bohemiancoding.com/sketch -->
    <title>lock-icon-1</title>
    <desc>Created with Sketch.</desc>
    <defs></defs>
    <g id="Assets" stroke="none" stroke-width="1" fill="none" fill-rule="evenodd">
        <g id="lock-icon" fill="#76C515" fill-rule="nonzero">
            <path d="M16,3 C12.145666,3 9,6.1456661 9,10 L9,12 L7,12 C5.895,12 5,12.895 5,14 L5,26 C5,27.105 5.895,28 7,28 L25,28 C26.105,28 27,27.105 27,26 L27,14 C27,12.895 26.105,12 25,12 L23,12 L23,10 C23,6.2715823 20.036581,3.2685653 16.355469,3.0722656 C16.242375,3.02671046 16.1219041,3.00221916 16,3 Z M16,5 C18.773666,5 21,7.2263339 21,10 L21,12 L11,12 L11,10 C11,7.2263339 13.226334,5 16,5 Z M10,18 C11.105,18 12,18.895 12,20 C12,21.104 11.105,22 10,22 C8.895,22 8,21.104 8,20 C8,18.895 8.895,18 10,18 Z M16,18 C17.105,18 18,18.895 18,20 C18,21.104 17.105,22 16,22 C14.895,22 14,21.104 14,20 C14,18.895 14.895,18 16,18 Z M22,18 C23.105,18 24,18.895 24,20 C24,21.104 23.105,22 22,22 C20.895,22 20,21.104 20,20 C20,18.895 20.895,18 22,18 Z" id="icon"></path>
        </g>
    </g>
</svg>