<?xml version="1.0" encoding="utf-8"?>
<!-- Generator: Adobe Illustrator 23.0.4, SVG Export Plug-In . SVG Version: 6.00 Build 0)  -->
<svg version="1.1" id="Layer_1" xmlns="http://www.w3.org/2000/svg" xmlns:xlink="http://www.w3.org/1999/xlink" x="0px" y="0px"
	 viewBox="0 0 200 200" style="enable-background:new 0 0 200 200;" xml:space="preserve">
<style type="text/css">
	.st0{fill:#42AE13;}
</style>
<g id="Assets">
	<g id="support-icon">
		<path id="icon" class="st0" d="M100,18.4c-47,0-84.8,32-84.8,71.8c0,22.2,11.7,41.8,30,54.8c0.7,9.8-1.3,24.1-15,30l0,0
			c-1.3,0.7-2,2-2,3.3c0,2,1.3,3.3,3.3,3.3l0,0c15.7,0,29.4-8.5,38.5-17.6c3.3-2.6,7.2-4.6,11.1-3.3c6.5,0.7,12.4,1.3,18.9,1.3
			c47,0,84.8-32,84.8-71.8S147,18.4,100,18.4z M100,44.5c14.4,0,26.1,11.7,26.1,26.1c0,11.1-7.2,17.6-12.4,22.8
			c-4.6,3.9-7.2,6.5-7.2,9.8H93.5c0-9.1,5.9-15,11.1-19.6c5.2-4.6,8.5-7.8,8.5-13.1c0-7.2-5.9-13.1-13.1-13.1s-13.1,5.9-13.1,13.1
			H73.9C73.9,56.3,85.6,44.5,100,44.5z M100,119.6c5.2,0,9.8,4.6,9.8,9.8s-4.6,9.8-9.8,9.8c-5.2,0-9.8-4.6-9.8-9.8
			S94.8,119.6,100,119.6z"/>
	</g>
</g>
</svg>
