<?xml version="1.0" encoding="UTF-8"?>
<svg width="32px" height="32px" viewBox="0 0 32 32" version="1.1" xmlns="http://www.w3.org/2000/svg" xmlns:xlink="http://www.w3.org/1999/xlink">
    <!-- Generator: Sketch 48.2 (47327) - http://www.bohemiancoding.com/sketch -->
    <title>quote-icon-grey</title>
    <desc>Created with Sketch.</desc>
    <defs></defs>
    <g id="Assets" stroke="none" stroke-width="1" fill="none" fill-rule="evenodd">
        <g id="quote-icon-grey" fill="#DCE0E9" fill-rule="nonzero">
            <path d="M9.0234375,4.00009294 C8.79837516,3.99702544 8.57885832,4.06996835 8.4003906,4.20712424 C8.4003906,4.20712424 4,7.56346104 4,14.0079054 L4,24.0079054 C4,25.1129054 4.895,26.0079054 6,26.0079054 L12,26.0079054 C13.105,26.0079054 14,25.1129054 14,24.0079054 L14,16.0079054 C14,14.9029054 13.105,14.0079054 12,14.0079054 L7.9589844,14.0079054 C7.9341312,12.2273264 8.1084098,8.41891374 9.8222656,5.58212424 C10.0388716,5.27945785 10.0694852,4.88154438 9.90172572,4.54930671 C9.73396621,4.21706905 9.39558823,4.00547353 9.0234375,4.00009294 Z M23.023438,4.00009294 C22.7983756,3.99702542 22.5788587,4.06996833 22.400391,4.20712424 C22.400391,4.20712424 18,7.56346104 18,14.0079054 L18,24.0079054 C18,25.1129054 18.895,26.0079054 20,26.0079054 L26,26.0079054 C27.105,26.0079054 28,25.1129054 28,24.0079054 L28,16.0079054 C28,14.9029054 27.105,14.0079054 26,14.0079054 L21.958984,14.0079054 C21.934131,12.2273264 22.10841,8.41891374 23.822266,5.58212424 C24.038872,5.27945787 24.0694856,4.88154442 23.9017261,4.54930676 C23.7339667,4.2170691 23.3955887,4.00547357 23.023438,4.00009294 Z" id="icon"></path>
        </g>
    </g>
</svg>