<?xml version="1.0" encoding="utf-8"?>
<!-- Generator: Adobe Illustrator 23.0.4, SVG Export Plug-In . SVG Version: 6.00 Build 0)  -->
<svg version="1.1" id="Layer_1" xmlns="http://www.w3.org/2000/svg" xmlns:xlink="http://www.w3.org/1999/xlink" x="0px" y="0px"
	 viewBox="0 0 200 200" style="enable-background:new 0 0 200 200;" xml:space="preserve">
<style type="text/css">
	.st0{fill-rule:evenodd;clip-rule:evenodd;fill:#00C2D0;}
</style>
<g>
	<path class="st0" d="M84.7,24.6v-6.1c0-6.7,5.5-12.2,12.3-12.2h6.1c6.8,0,12.3,5.5,12.3,12.2v6.1h12.3c3.4,0,6.1,2.7,6.1,6.1v6.1
		c0,3.4-2.7,6.1-6.1,6.1H72.4c-3.4,0-6.1-2.7-6.1-6.1v-6.1c0-3.4,2.7-6.1,6.1-6.1L84.7,24.6z M139.8,30.7h6.1
		c6.8,0,12.2,5.5,12.2,12.3v128.6c0,6.8-5.5,12.3-12.2,12.3H54c-6.8,0-12.2-5.5-12.2-12.3V43c0-6.8,5.5-12.3,12.2-12.3h6.1v0v6.1
		c0,6.8,5.5,12.3,12.3,12.3h55.1c6.8,0,12.3-5.5,12.3-12.3L139.8,30.7L139.8,30.7L139.8,30.7z M100,24.6c1.7,0,3.1-1.4,3.1-3.1
		s-1.4-3.1-3.1-3.1s-3.1,1.4-3.1,3.1S98.3,24.6,100,24.6z M60.2,73.6v6.1h79.6v-6.1H60.2z M60.2,91.9v6.1h79.6v-6.1H60.2z
		 M60.2,110.3v6.1h79.6v-6.1H60.2z M60.2,128.7v6.1h79.6v-6.1H60.2z M60.2,147.1v6.1h79.6v-6.1H60.2z"/>
</g>
</svg>
