<?xml version="1.0" encoding="utf-8"?>
<!-- Generator: Adobe Illustrator 23.0.4, SVG Export Plug-In . SVG Version: 6.00 Build 0)  -->
<svg version="1.1" id="Layer_1" xmlns="http://www.w3.org/2000/svg" xmlns:xlink="http://www.w3.org/1999/xlink" x="0px" y="0px"
	 viewBox="0 0 200 200" style="enable-background:new 0 0 200 200;" xml:space="preserve">
<style type="text/css">
	.st0{fill-rule:evenodd;clip-rule:evenodd;fill:#F76240;}
</style>
<g>
	<path class="st0" d="M99.8,28.5c-1.4,0.1-2.7,1-3.1,2.4L80.7,80.6l-52.3-0.1c-1.5,0-2.8,1-3.2,2.4c-0.5,1.4,0,2.9,1.2,3.8
		l42.4,30.6L52.5,167c-0.5,1.4,0,2.9,1.2,3.8c1.2,0.9,2.8,0.9,4,0L100,140l42.3,30.8c1.2,0.9,2.8,0.9,4,0c1.2-0.9,1.7-2.4,1.2-3.8
		l-16.3-49.7l42.4-30.6c1.2-0.9,1.7-2.4,1.2-3.8c-0.5-1.4-1.8-2.4-3.2-2.4l-52.3,0.1l-16.1-49.8v0C102.8,29.4,101.4,28.4,99.8,28.5
		L99.8,28.5z"/>
</g>
</svg>
