<?xml version="1.0" encoding="UTF-8"?>
<svg width="16px" height="16px" viewBox="0 0 16 16" version="1.1" xmlns="http://www.w3.org/2000/svg" xmlns:xlink="http://www.w3.org/1999/xlink">
    <!-- Generator: Sketch 48.2 (47327) - http://www.bohemiancoding.com/sketch -->
    <title>star-half-icon</title>
    <desc>Created with Sketch.</desc>
    <defs>
        <path d="M8.45621863,0.327711626 L10.1696459,5.40064827 L15.5232866,5.46262964 C15.9839751,5.46799341 16.174687,6.05502849 15.8051827,6.32977282 L11.509993,9.52658111 L13.1054173,14.6376601 C13.2424914,15.0774895 12.7436606,15.4398421 12.3676006,15.1734414 L8.00029799,12.0761609 L3.63239942,15.1728454 C3.25693535,15.4392461 2.75750856,15.0762975 2.89458274,14.6370642 L4.49000701,9.52598514 L0.194817349,6.32917685 C-0.174686965,6.05443251 0.0160249387,5.46739743 0.476713381,5.46203366 L5.83035411,5.40005229 L7.54378137,0.327115651 C7.69158309,-0.109137829 8.30901288,-0.109137829 8.45621863,0.327711626 Z" id="path-1"></path>
    </defs>
    <g id="Assets" stroke="none" stroke-width="1" fill="none" fill-rule="evenodd">
        <g id="star-half-icon">
            <mask id="mask-2" fill="white">
                <use xlink:href="#path-1"></use>
            </mask>
            <use id="mask" fill="#DCE0E9" fill-rule="nonzero" xlink:href="#path-1"></use>
            <path d="M16,5.94857048 L16,5.94858624 C16,5.94858099 16,5.94857573 16,5.94857048 Z M8,12.0763721 L3.63239942,15.1728454 C3.25693535,15.4392461 2.75750856,15.0762975 2.89458274,14.6370642 L4.49000701,9.52598514 L0.194817349,6.32917685 C-0.174686965,6.05443251 0.0160249387,5.46739743 0.476713381,5.46203366 L5.83035411,5.40005229 L7.54378137,0.327115651 C7.61765701,0.109063341 7.80885957,-1.65283479e-08 8.00002773,1.91038231e-15 L8,12.0763721 Z" id="half" fill="#FFB717" fill-rule="nonzero" mask="url(#mask-2)"></path>
        </g>
    </g>
</svg>