<?xml version="1.0" encoding="UTF-8"?>
<svg width="32px" height="32px" viewBox="0 0 32 32" version="1.1" xmlns="http://www.w3.org/2000/svg" xmlns:xlink="http://www.w3.org/1999/xlink">
    <!-- Generator: Sketch 48.2 (47327) - http://www.bohemiancoding.com/sketch -->
    <title>support-icon-3</title>
    <desc>Created with Sketch.</desc>
    <defs></defs>
    <g id="Assets" stroke="none" stroke-width="1" fill="none" fill-rule="evenodd">
        <g id="support-icon" fill="#D63E8D" fill-rule="nonzero">
            <path d="M16,4 C8.82,4 3,8.925 3,15 C3,18.368 4.7933281,21.378484 7.6113281,23.396484 C7.6832805,24.932468 7.4452784,27.053382 5.3261719,28.03125 C5.32486696,28.0318953 5.32356485,28.0325463 5.3222656,28.033203 C5.12843663,28.1069174 5.00022694,28.2926273 5,28.5 C5,28.7761424 5.22385763,29 5.5,29 C5.51434432,28.9999657 5.52868051,28.9993141 5.5429688,28.998047 C7.9769949,28.982445 10.0432734,27.667034 11.46875,26.277344 C11.92075,25.836344 12.550875,25.619328 13.171875,25.736328 C14.081875,25.909328 15.028,26 16,26 C23.18,26 29,21.075 29,15 C29,8.925 23.18,4 16,4 Z M16,8 C18.206,8 20,9.794 20,12 C20,13.715 18.929359,14.704 18.068359,15.5 C17.406359,16.111 17,16.512 17,17 L15,17 C15,15.611 15.948937,14.734297 16.710938,14.029297 C17.509937,13.291297 18,12.799 18,12 C18,10.897 17.103,10 16,10 C14.897,10 14,10.897 14,12 L12,12 C12,9.794 13.794,8 16,8 Z M16,19.5 C16.828,19.5 17.5,20.172 17.5,21 C17.5,21.828 16.828,22.5 16,22.5 C15.172,22.5 14.5,21.828 14.5,21 C14.5,20.172 15.172,19.5 16,19.5 Z" id="icon"></path>
        </g>
    </g>
</svg>