<?xml version="1.0" encoding="utf-8"?>
<!-- Generator: Adobe Illustrator 23.0.4, SVG Export Plug-In . SVG Version: 6.00 Build 0)  -->
<svg version="1.1" id="Layer_1" xmlns="http://www.w3.org/2000/svg" xmlns:xlink="http://www.w3.org/1999/xlink" x="0px" y="0px"
	 viewBox="0 0 200 200" style="enable-background:new 0 0 200 200;" xml:space="preserve">
<style type="text/css">
	.st0{fill:#FFFB08;}
	.st1{fill:#F76240;}
</style>
<path class="st0" d="M166.6,149.2c0-0.3,0-0.5-0.1-0.8c-0.4-2.6-0.8-5.2-1.3-7.8c-1-5.7-3.4-10.7-7.6-14.7
	c-3.7-3.5-8.1-5.5-13.4-5.7c0-0.5,0-0.9,0-1.3c0-15.2,0-30.4,0-45.7h2.1c0,1.4,0,2.8,0,4.2c0,1.5,0.8,2.3,2.3,2.3c2.1,0,4.2,0,6.3,0
	c1.6,0,2.4-0.8,2.4-2.4c0-2.5,0-5,0-7.5c0-2.6,0-5.1,0-7.7c0-1.5-0.8-2.3-2.4-2.4c-2.1,0-4.2,0-6.3,0c-1.5,0-2.3,0.8-2.3,2.3
	c0,1.4,0,2.8,0,4.2h-2.1c0-10.1,0-20.1,0-30.2c0-3.6,0-7.2,0-10.8c0-0.6,0.2-0.9,0.8-1.1c0.9-0.3,1.7-0.6,2.6-1
	c0.2-0.1,0.5-0.4,0.5-0.5c0-1.7,0-3.4,0-5.3c-3.2,1-6.2,1.9-9.3,2.8c-0.7,0.2-0.9,0.5-0.9,1.3c0,6,0,12,0,18c0,0.3,0,0.6,0,1.2
	c-0.6-0.6-0.9-1-1.3-1.3c-3.6-3.6-7.9-5.5-13.2-5.5c-15.8,0.1-31.5,0.1-47.3,0c-5,0-9,1.7-12.5,5.1c-0.5,0.5-0.9,1-1.4,1.5
	c-0.1,0-0.1-0.1-0.2-0.1c0-0.3,0-0.7,0-1c0-6,0-12,0-17.9c0-0.7-0.2-1-0.9-1.2c-2.8-0.8-5.6-1.7-8.4-2.6c-0.3-0.1-0.6-0.1-0.9-0.2
	c0,0.8,0,1.6,0,2.3c0,1.1-0.3,2.4,0.2,3.1c0.5,0.7,1.8,0.9,2.8,1.2c0.8,0.2,0.9,0.6,0.9,1.4c0,13.6,0,27.2,0,40.9h-1.6
	c0-1.4,0-2.8,0-4.2c0-1.5-0.8-2.3-2.4-2.4c-2.1,0-4.2,0-6.2,0c-1.6,0-2.5,0.8-2.5,2.5c0,2.5,0,5,0,7.5c0,2.5,0,4.9,0,7.4
	c0,1.8,0.8,2.6,2.5,2.6c2,0,4.1,0,6.1,0c1.6,0,2.4-0.8,2.4-2.3c0-1.4,0-2.8,0-4.2h1.6c0,15.3,0,30.6,0,45.9c0,0.3,0,0.7,0,0.9
	c-1.7,0.3-3.3,0.4-4.8,0.9c-7.8,2.4-12.6,7.9-15.1,15.5c-0.9,2.8-1.2,5.9-1.8,8.8c-0.2,1.3-0.4,2.6-0.7,3.9l0,2.9
	c0,5.2,0,10.3,0,15.6c1.4,0.2,2.8,0.6,4.2,0.7c0.9,0.1,1,0.5,1,1.3c0,3,0,5.9,0,8.9c0,2.4,1.8,4.1,4,3.8c4.1-0.5,8.3-0.9,12.4-1.4
	c4.3-0.6,4.9-1.2,4.9-5.6c0-1.5,0-2.9,0-4.4c26.8,0,53.6,0,80.4,0c0,0.4,0,0.7,0,1.1c0,1.6,0,3.3,0,4.9c0,2.5,1.3,3.8,3.8,4.1
	c4.3,0.5,8.6,1,13,1.5c2.6,0.3,4.4-1.2,4.5-3.8c0-3,0-6.1,0-9.1c0-0.7,0.1-1,0.8-1c1.4-0.2,2.9-0.5,4.3-0.7c0-5.2,0-10.4,0-15.6
	L166.6,149.2z"/>
<path class="st1" d="M106.7,90.4h-4.1V74.3h13.2c1.9,0,3.4-1.6,3.4-3.6s-1.5-3.6-3.4-3.6l-13.2,0v-6.9c0-2-1.5-3.6-3.4-3.6
	s-3.4,1.6-3.4,3.6v6.9h-4.1c-7.9,0-14.3,6.9-14.3,15.3c0,8.4,6.4,15.3,14.3,15.3h4.1v16.1h-15c-1.9,0-3.4,1.6-3.4,3.6
	c0,2,1.5,3.6,3.4,3.6h15v6.9c0,2,1.5,3.6,3.4,3.6s3.4-1.6,3.4-3.6V121h4.1c7.9,0,14.3-6.9,14.3-15.3
	C120.9,97.3,114.5,90.4,106.7,90.4L106.7,90.4z M91.6,90.4c-4.1,0-7.5-3.6-7.5-8.1c0-4.4,3.4-8.1,7.5-8.1h4.1v16.1L91.6,90.4z
	 M106.7,113.8h-4.1V97.7h4.1c4.1,0,7.5,3.6,7.5,8.1C114.2,110.2,110.8,113.8,106.7,113.8L106.7,113.8z"/>
</svg>
