<?xml version="1.0" encoding="UTF-8"?>
<svg width="16px" height="16px" viewBox="0 0 16 16" version="1.1" xmlns="http://www.w3.org/2000/svg" xmlns:xlink="http://www.w3.org/1999/xlink">
    <!-- Generator: Sketch 48.2 (47327) - http://www.bohemiancoding.com/sketch -->
    <title>world-icon</title>
    <desc>Created with Sketch.</desc>
    <defs>
        <path d="M8,0 C3.5896184,0 0,3.5896184 0,8 C0,12.4103813 3.5896184,16 8,16 C12.4103813,16 16,12.4103813 16,8 C16,3.5896184 12.4103813,0 8,0 Z M8,1.33333333 C8.262076,1.33333333 8.53362733,1.44189273 8.84375,1.73046873 C9.15387267,2.0190448 9.47482267,2.48445407 9.75,3.08984373 C9.95446333,3.53966367 10.1213113,4.08466473 10.2656253,4.66666667 L5.73437467,4.66666667 C5.87868867,4.08466473 6.04553667,3.53966367 6.25,3.08984373 C6.52517733,2.48445407 6.84612733,2.0190448 7.15625,1.73046873 C7.46637267,1.44189273 7.737924,1.33333333 8,1.33333333 Z M5.39192733,1.8619792 C5.26645533,2.07591093 5.14583733,2.298428 5.03645867,2.53906253 C4.75140867,3.16617087 4.52263867,3.88536793 4.3502604,4.66666667 L2.22916667,4.66666667 C2.94884873,3.420753 4.0556094,2.4286794 5.39192733,1.8619792 Z M10.6080727,1.8619792 C11.9443907,2.4286794 13.0511513,3.420753 13.7708333,4.66666667 L11.6497393,4.66666667 C11.4773613,3.88536793 11.2485913,3.16617087 10.9635413,2.53906253 C10.8541627,2.298428 10.7335447,2.07591093 10.6080727,1.8619792 Z M1.6380208,6 L4.12369793,6 C4.04533053,6.64009067 4,7.30795267 4,8 C4,8.69204733 4.04533053,9.35990933 4.12369793,10 L1.6380208,10 C1.44070867,9.36895733 1.33333333,8.69723 1.33333333,8 C1.33333333,7.30277 1.44070867,6.63104267 1.6380208,6 Z M5.48177067,6 L10.5182293,6 C10.6051793,6.63605467 10.6666667,7.29831067 10.6666667,8 C10.6666667,8.70168933 10.6051793,9.363946 10.5182293,10 L5.48177067,10 C5.39482067,9.363946 5.33333333,8.70168933 5.33333333,8 C5.33333333,7.29831067 5.39482067,6.63605467 5.48177067,6 Z M11.876302,6 L14.3619793,6 C14.5592913,6.63104267 14.6666667,7.30277 14.6666667,8 C14.6666667,8.69723 14.5592913,9.36895733 14.3619793,10 L11.876302,10 C11.9546693,9.35990933 12,8.69204733 12,8 C12,7.30795267 11.9546693,6.64009067 11.876302,6 Z M2.22916667,11.3333333 L4.3502604,11.3333333 C4.52263867,12.114632 4.75140867,12.8338293 5.03645867,13.4609373 C5.14583733,13.701572 5.26645533,13.9240893 5.39192733,14.1380207 C4.0556094,13.5713207 2.94884873,12.5792473 2.22916667,11.3333333 Z M5.73437467,11.3333333 L10.2656253,11.3333333 C10.1213113,11.9153353 9.95446333,12.4603367 9.75,12.910156 C9.47482267,13.515546 9.15387267,13.9809553 8.84375,14.2695313 C8.53362733,14.5581073 8.262076,14.6666667 8,14.6666667 C7.737924,14.6666667 7.46637267,14.5581073 7.15625,14.2695313 C6.84612733,13.9809553 6.52517733,13.515546 6.25,12.910156 C6.04553667,12.4603367 5.87868867,11.9153353 5.73437467,11.3333333 Z M11.6497393,11.3333333 L13.7708333,11.3333333 C13.0511513,12.5792473 11.9443907,13.5713207 10.6080727,14.1380207 C10.7335447,13.9240893 10.8541627,13.701572 10.9635413,13.4609373 C11.2485913,12.8338293 11.4773613,12.114632 11.6497393,11.3333333 Z" id="path-1"></path>
    </defs>
    <g id="Assets" stroke="none" stroke-width="1" fill="none" fill-rule="evenodd">
        <g id="world-icon">
            <mask id="mask-2" fill="white">
                <use xlink:href="#path-1"></use>
            </mask>
            <use id="icon" fill="#212C42" fill-rule="nonzero" xlink:href="#path-1"></use>
        </g>
    </g>
</svg>